<mxfile host="65bd71144e">
    <diagram id="zcNsZhHM98mFXs7Fz1zc" name="Page-1">
        <mxGraphModel dx="1129" dy="713" grid="1" gridSize="11" guides="1" tooltips="1" connect="1" arrows="1" fold="1" page="1" pageScale="1" pageWidth="3300" pageHeight="4681" math="0" shadow="0">
            <root>
                <mxCell id="0"/>
                <mxCell id="1" parent="0"/>
                <mxCell id="cunXjEZUzttqtWhyBPBt-4" value="" style="shape=image;html=1;verticalLabelPosition=bottom;verticalAlign=top;imageAspect=1;aspect=fixed;image=img/clipart/Gear_128x128.png" parent="1" vertex="1">
                    <mxGeometry x="3124" y="2761" width="1837.9" height="2156" as="geometry"/>
                </mxCell>
                <mxCell id="G4DIVwbq2QVi-JwqjrJQ-1" value="&lt;p style=&quot;margin:0in;font-family:&amp;quot;Yu Gothic&amp;quot;;font-size:11.0pt&quot;&gt;&lt;span lang=&quot;en-US&quot;&gt;[&lt;/span&gt;&lt;span lang=&quot;ja&quot;&gt;申請書設定&lt;/span&gt;&lt;span lang=&quot;en-US&quot;&gt;]&lt;/span&gt;&lt;span lang=&quot;ja&quot;&gt;ボタン押下後&lt;/span&gt;&lt;/p&gt;" style="rounded=0;whiteSpace=wrap;html=1;" parent="1" vertex="1">
                    <mxGeometry x="750.06" y="11" width="187" height="44" as="geometry"/>
                </mxCell>
                <mxCell id="G4DIVwbq2QVi-JwqjrJQ-4" value="" style="endArrow=classic;html=1;rounded=0;exitX=0.5;exitY=1;exitDx=0;exitDy=0;" parent="1" source="G4DIVwbq2QVi-JwqjrJQ-1" edge="1">
                    <mxGeometry width="50" height="50" relative="1" as="geometry">
                        <mxPoint x="838.06" y="121" as="sourcePoint"/>
                        <mxPoint x="843.06" y="110" as="targetPoint"/>
                    </mxGeometry>
                </mxCell>
                <mxCell id="G4DIVwbq2QVi-JwqjrJQ-5" value="&lt;p style=&quot;margin:0in;font-family:&amp;quot;Yu Gothic&amp;quot;;font-size:11.0pt&quot;&gt;API&lt;/p&gt;&lt;p lang=&quot;en-US&quot; style=&quot;margin:0in;margin-left:.375in;font-size:11.0pt&quot;&gt;&lt;span style=&quot;font-family:&amp;quot;Yu Gothic&amp;quot;&quot;&gt;ApplicationV5ApiController.cs(&lt;/span&gt;&lt;span style=&quot;font-family:游ゴシック&quot;&gt;/api/v5/application/formsettings)&lt;/span&gt;&lt;/p&gt;&lt;p style=&quot;margin:0in;font-family:&amp;quot;Yu Gothic&amp;quot;;font-size:11.0pt&quot;&gt;&lt;br&gt;&lt;/p&gt;&lt;p style=&quot;margin: 0in 0in 0in 0.375in;&quot;&gt;&lt;span style=&quot;font-family: 游ゴシック; font-size: 11pt;&quot; lang=&quot;en-US&quot;&gt;[Route(&quot;formsettings&quot;)](&lt;/span&gt;&lt;span style=&quot;font-family: 游ゴシック; font-size: 11pt;&quot; lang=&quot;ja&quot;&gt;テナント情報の取得、フォームの情報を取得(shardDbとか)、カテゴリー覧を取得&lt;/span&gt;&lt;span style=&quot;&quot; lang=&quot;en-US&quot;&gt;&lt;font face=&quot;游ゴシック&quot;&gt;&lt;span style=&quot;font-size: 11pt;&quot;&gt;)&lt;/span&gt;&lt;/font&gt;&lt;br&gt;&lt;font face=&quot;游ゴシック&quot;&gt;&lt;span style=&quot;font-size: 14.6667px;&quot;&gt;GetApplicationSettingsを呼び出している&lt;/span&gt;&lt;/font&gt;&lt;br&gt;&lt;/span&gt;&lt;/p&gt;" style="rounded=0;whiteSpace=wrap;html=1;align=left;" parent="1" vertex="1">
                    <mxGeometry x="464.05999999999995" y="110" width="781" height="99" as="geometry"/>
                </mxCell>
                <mxCell id="G4DIVwbq2QVi-JwqjrJQ-6" value="" style="endArrow=classic;html=1;rounded=0;" parent="1" edge="1">
                    <mxGeometry width="50" height="50" relative="1" as="geometry">
                        <mxPoint x="843.06" y="220" as="sourcePoint"/>
                        <mxPoint x="843.03" y="253" as="targetPoint"/>
                    </mxGeometry>
                </mxCell>
                <mxCell id="G4DIVwbq2QVi-JwqjrJQ-8" value="&lt;p lang=&quot;en-US&quot; style=&quot;margin:0in;margin-left:.375in;font-family:&amp;quot;Yu Gothic&amp;quot;;font-size:11.0pt&quot;&gt;DataProvider&lt;/p&gt;&lt;blockquote style=&quot;margin: 0 0 0 40px; border: none; padding: 0px;&quot;&gt;&lt;p lang=&quot;en-US&quot; style=&quot;margin:0in;margin-left:.375in;font-family:&amp;quot;Yu Gothic&amp;quot;;font-size:11.0pt&quot;&gt;ApplicationDataProvider.cs&lt;/p&gt;&lt;p style=&quot;margin:0in;margin-left:.375in;font-family:&amp;quot;Yu Gothic&amp;quot;;font-size:11.0pt&quot;&gt;&lt;span lang=&quot;en-US&quot;&gt;(DataProviders&lt;/span&gt;&lt;span lang=&quot;ja&quot;&gt;フォルダ)&lt;/span&gt;&lt;/p&gt;&lt;p style=&quot;margin:0in;margin-left:.375in;font-family:&amp;quot;Yu Gothic&amp;quot;;font-size:11.0pt&quot;&gt;基本的に、DB設計書にあるカラム&lt;/p&gt;&lt;/blockquote&gt;" style="rounded=0;whiteSpace=wrap;html=1;align=left;" parent="1" vertex="1">
                    <mxGeometry x="673.06" y="253" width="341" height="88" as="geometry"/>
                </mxCell>
                <mxCell id="G4DIVwbq2QVi-JwqjrJQ-9" value="" style="endArrow=classic;html=1;rounded=0;exitX=0.5;exitY=1;exitDx=0;exitDy=0;" parent="1" edge="1">
                    <mxGeometry width="50" height="50" relative="1" as="geometry">
                        <mxPoint x="843.5299999999993" y="341" as="sourcePoint"/>
                        <mxPoint x="843.0300000000002" y="396" as="targetPoint"/>
                    </mxGeometry>
                </mxCell>
                <mxCell id="G4DIVwbq2QVi-JwqjrJQ-10" value="&lt;blockquote style=&quot;margin: 0 0 0 40px; border: none; padding: 0px;&quot;&gt;&lt;p lang=&quot;en-US&quot; style=&quot;margin: 0in 0in 0in 0.375in;&quot;&gt;&lt;font face=&quot;Yu Gothic&quot;&gt;&lt;span style=&quot;font-size: 14.6667px;&quot;&gt;ApplicationModels.cs&lt;/span&gt;&lt;/font&gt;&lt;/p&gt;&lt;/blockquote&gt;&lt;blockquote style=&quot;margin: 0 0 0 40px; border: none; padding: 0px;&quot;&gt;&lt;blockquote style=&quot;margin: 0 0 0 40px; border: none; padding: 0px;&quot;&gt;&lt;p lang=&quot;en-US&quot; style=&quot;margin: 0in 0in 0in 0.375in;&quot;&gt;&lt;font face=&quot;Yu Gothic&quot;&gt;&lt;span style=&quot;font-size: 14.6667px;&quot;&gt;(Modelsフォルダ：基本型データ持っているだけな感じ)&lt;/span&gt;&lt;/font&gt;&lt;/p&gt;&lt;/blockquote&gt;&lt;blockquote style=&quot;margin: 0 0 0 40px; border: none; padding: 0px;&quot;&gt;&lt;p lang=&quot;en-US&quot; style=&quot;margin: 0in 0in 0in 0.375in;&quot;&gt;&lt;font face=&quot;Yu Gothic&quot;&gt;&lt;span style=&quot;font-size: 14.6667px;&quot;&gt;&amp;nbsp;ApplicationFormSettingsModel&lt;/span&gt;&lt;/font&gt;&lt;/p&gt;&lt;/blockquote&gt;&lt;/blockquote&gt;" style="rounded=0;whiteSpace=wrap;html=1;align=left;" parent="1" vertex="1">
                    <mxGeometry x="590.56" y="396" width="506" height="77" as="geometry"/>
                </mxCell>
                <mxCell id="G4DIVwbq2QVi-JwqjrJQ-12" value="" style="endArrow=classic;html=1;rounded=0;exitX=0.5;exitY=1;exitDx=0;exitDy=0;" parent="1" edge="1">
                    <mxGeometry width="50" height="50" relative="1" as="geometry">
                        <mxPoint x="843.5299999999993" y="473" as="sourcePoint"/>
                        <mxPoint x="843.0300000000002" y="528" as="targetPoint"/>
                    </mxGeometry>
                </mxCell>
                <mxCell id="G4DIVwbq2QVi-JwqjrJQ-13" value="&lt;blockquote style=&quot;margin: 0 0 0 40px; border: none; padding: 0px;&quot;&gt;&lt;p lang=&quot;en-US&quot; style=&quot;margin: 0in 0in 0in 0.375in;&quot;&gt;ExpenseAuthenticationAttribute.cs&lt;/p&gt;&lt;p lang=&quot;en-US&quot; style=&quot;margin: 0in 0in 0in 0.375in;&quot;&gt;&lt;span style=&quot;white-space: pre;&quot;&gt;&#9;&lt;/span&gt;多分認証とかをやっている場所&lt;br&gt;&lt;/p&gt;&lt;/blockquote&gt;" style="rounded=0;whiteSpace=wrap;html=1;align=left;" parent="1" vertex="1">
                    <mxGeometry x="681.31" y="528" width="324.5" height="55" as="geometry"/>
                </mxCell>
                <mxCell id="G4DIVwbq2QVi-JwqjrJQ-15" value="&lt;blockquote style=&quot;margin: 0 0 0 40px; border: none; padding: 0px;&quot;&gt;&lt;p lang=&quot;en-US&quot; style=&quot;margin: 0in 0in 0in 0.375in;&quot;&gt;「申請書設定を編集画面」が開かれる&lt;br&gt;&lt;/p&gt;&lt;/blockquote&gt;&lt;blockquote style=&quot;margin: 0 0 0 40px; border: none; padding: 0px;&quot;&gt;&lt;blockquote style=&quot;margin: 0 0 0 40px; border: none; padding: 0px;&quot;&gt;&lt;p lang=&quot;en-US&quot; style=&quot;margin: 0in 0in 0in 0.375in;&quot;&gt;→クエリパラメータ&lt;span style=&quot;background-color: initial;&quot; lang=&quot;ja&quot;&gt;を設定していると思う&lt;/span&gt;&lt;span style=&quot;background-color: initial;&quot; lang=&quot;en-US&quot;&gt;(ApplicationSetting.jsx)&lt;/span&gt;&lt;/p&gt;&lt;/blockquote&gt;&lt;blockquote style=&quot;margin: 0 0 0 40px; border: none; padding: 0px;&quot;&gt;&lt;p lang=&quot;en-US&quot; style=&quot;margin: 0in 0in 0in 0.375in;&quot;&gt;&lt;span style=&quot;background-color: initial;&quot; lang=&quot;en-US&quot;&gt;→&lt;/span&gt;&lt;span style=&quot;font-family: &amp;quot;Yu Gothic&amp;quot;; font-size: 11pt; background-color: initial;&quot; lang=&quot;en-US&quot;&gt;MjsModal.jsx(Scripts&lt;/span&gt;&lt;span style=&quot;font-family: &amp;quot;Yu Gothic&amp;quot;; font-size: 11pt; background-color: initial;&quot; lang=&quot;ja&quot;&gt;の&lt;/span&gt;&lt;span style=&quot;font-family: &amp;quot;Yu Gothic&amp;quot;; font-size: 11pt; background-color: initial;&quot; lang=&quot;en-US&quot;&gt;Components&lt;/span&gt;&lt;span style=&quot;font-family: &amp;quot;Yu Gothic&amp;quot;; font-size: 11pt; background-color: initial;&quot; lang=&quot;ja&quot;&gt;の&lt;/span&gt;&lt;span style=&quot;font-family: &amp;quot;Yu Gothic&amp;quot;; font-size: 11pt; background-color: initial;&quot; lang=&quot;en-US&quot;&gt;Common&lt;/span&gt;&lt;span style=&quot;font-family: &amp;quot;Yu Gothic&amp;quot;; font-size: 11pt; background-color: initial;&quot; lang=&quot;ja&quot;&gt;フォルダ&lt;/span&gt;&lt;span style=&quot;font-family: &amp;quot;Yu Gothic&amp;quot;; font-size: 11pt; background-color: initial;&quot; lang=&quot;en-US&quot;&gt;)&lt;/span&gt;&lt;span style=&quot;font-family: &amp;quot;Yu Gothic&amp;quot;; font-size: 11pt; background-color: initial;&quot; lang=&quot;ja&quot;&gt;を元にモーダルが作られている&lt;/span&gt;&lt;span style=&quot;font-family: &amp;quot;Yu Gothic&amp;quot;; font-size: 11pt; background-color: initial;&quot; lang=&quot;en-US&quot;&gt;(Applicationsetting.jsx&lt;/span&gt;&lt;span style=&quot;font-family: &amp;quot;Yu Gothic&amp;quot;; font-size: 11pt; background-color: initial;&quot; lang=&quot;ja&quot;&gt;内にあるコンポーネント&lt;/span&gt;&lt;span style=&quot;font-family: &amp;quot;Yu Gothic&amp;quot;; font-size: 11pt; background-color: initial;&quot; lang=&quot;en-US&quot;&gt;)&lt;/span&gt;&lt;/p&gt;&lt;/blockquote&gt;&lt;/blockquote&gt;" style="rounded=0;whiteSpace=wrap;html=1;align=left;" parent="1" vertex="1">
                    <mxGeometry x="332.05999999999995" y="627" width="1045" height="99" as="geometry"/>
                </mxCell>
                <mxCell id="G4DIVwbq2QVi-JwqjrJQ-16" value="" style="endArrow=classic;html=1;rounded=0;" parent="1" edge="1">
                    <mxGeometry width="50" height="50" relative="1" as="geometry">
                        <mxPoint x="843.06" y="583" as="sourcePoint"/>
                        <mxPoint x="843.0300000000002" y="627" as="targetPoint"/>
                    </mxGeometry>
                </mxCell>
                <mxCell id="G4DIVwbq2QVi-JwqjrJQ-17" value="" style="endArrow=classic;html=1;rounded=0;" parent="1" edge="1">
                    <mxGeometry width="50" height="50" relative="1" as="geometry">
                        <mxPoint x="843.06" y="726" as="sourcePoint"/>
                        <mxPoint x="843.0300000000002" y="769.9999999999991" as="targetPoint"/>
                    </mxGeometry>
                </mxCell>
                <mxCell id="G4DIVwbq2QVi-JwqjrJQ-24" value="" style="edgeStyle=orthogonalEdgeStyle;rounded=0;orthogonalLoop=1;jettySize=auto;html=1;" parent="1" source="G4DIVwbq2QVi-JwqjrJQ-18" target="G4DIVwbq2QVi-JwqjrJQ-21" edge="1">
                    <mxGeometry relative="1" as="geometry"/>
                </mxCell>
                <mxCell id="G4DIVwbq2QVi-JwqjrJQ-18" value="&lt;blockquote style=&quot;margin: 0 0 0 40px; border: none; padding: 0px;&quot;&gt;&lt;blockquote style=&quot;margin: 0 0 0 40px; border: none; padding: 0px;&quot;&gt;&lt;p lang=&quot;en-US&quot; style=&quot;margin: 0in 0in 0in 0.375in;&quot;&gt;&lt;font face=&quot;Yu Gothic&quot;&gt;&lt;span style=&quot;font-size: 14.6667px;&quot;&gt;データ入力後、[更新]ボタンを押下&lt;/span&gt;&lt;/font&gt;&lt;/p&gt;&lt;/blockquote&gt;&lt;blockquote style=&quot;margin: 0 0 0 40px; border: none; padding: 0px;&quot;&gt;&lt;p lang=&quot;en-US&quot; style=&quot;margin: 0in 0in 0in 0.375in;&quot;&gt;&lt;span style=&quot;font-family: &amp;quot;Yu Gothic&amp;quot;; font-size: 11pt; background-color: initial;&quot; lang=&quot;ja&quot;&gt;→&lt;/span&gt;&lt;span style=&quot;font-family: &amp;quot;Yu Gothic&amp;quot;; font-size: 11pt; background-color: initial;&quot; lang=&quot;en-US&quot;&gt;API&lt;/span&gt;&lt;span style=&quot;font-family: &amp;quot;Yu Gothic&amp;quot;; font-size: 11pt; background-color: initial;&quot; lang=&quot;ja&quot;&gt;が呼び出される&lt;/span&gt;&lt;span style=&quot;font-family: &amp;quot;Yu Gothic&amp;quot;; font-size: 11pt; background-color: initial;&quot; lang=&quot;en-US&quot;&gt;(&lt;/span&gt;&lt;span style=&quot;font-family: &amp;quot;Yu Gothic&amp;quot;; font-size: 11pt; background-color: initial;&quot; lang=&quot;ja&quot;&gt;フォーム情報を取得、重複チェック、申請書設定更新、使用可能カテゴリ情報を更新&lt;/span&gt;&lt;span style=&quot;font-family: &amp;quot;Yu Gothic&amp;quot;; font-size: 11pt; background-color: initial;&quot; lang=&quot;en-US&quot;&gt;)&lt;/span&gt;&lt;/p&gt;&lt;/blockquote&gt;&lt;blockquote style=&quot;margin: 0 0 0 40px; border: none; padding: 0px;&quot;&gt;&lt;p lang=&quot;en-US&quot; style=&quot;margin:0in;margin-left:.375in;font-size:11.0pt&quot;&gt;&lt;span style=&quot;font-family:&amp;quot;Yu Gothic&amp;quot;&quot;&gt;ApplicationV5ApiController.cs(&lt;/span&gt;&lt;span style=&quot;font-family:游ゴシック&quot;&gt;/api/v5/application/updateform)&lt;/span&gt;&lt;/p&gt;&lt;/blockquote&gt;&lt;/blockquote&gt;" style="rounded=0;whiteSpace=wrap;html=1;align=left;" parent="1" vertex="1">
                    <mxGeometry x="422.80999999999995" y="770" width="841.5" height="110" as="geometry"/>
                </mxCell>
                <mxCell id="G4DIVwbq2QVi-JwqjrJQ-19" value="" style="endArrow=classic;html=1;rounded=0;" parent="1" edge="1">
                    <mxGeometry width="50" height="50" relative="1" as="geometry">
                        <mxPoint x="843.06" y="880" as="sourcePoint"/>
                        <mxPoint x="843.0300000000002" y="923.9999999999991" as="targetPoint"/>
                    </mxGeometry>
                </mxCell>
                <mxCell id="G4DIVwbq2QVi-JwqjrJQ-21" value="DataProvider&lt;br&gt;&lt;span style=&quot;white-space: pre;&quot;&gt;&#9;&lt;/span&gt;UpdateFormSettingsのクラスにとんで、ここで多分データの更新を行っている" style="rounded=0;whiteSpace=wrap;html=1;align=left;" parent="1" vertex="1">
                    <mxGeometry x="591.94" y="924" width="503.25" height="88" as="geometry"/>
                </mxCell>
                <mxCell id="G4DIVwbq2QVi-JwqjrJQ-23" value="&lt;blockquote style=&quot;margin: 0 0 0 40px; border: none; padding: 0px;&quot;&gt;&lt;blockquote style=&quot;margin: 0 0 0 40px; border: none; padding: 0px;&quot;&gt;&lt;p style=&quot;margin:0in;font-family:&amp;quot;Yu Gothic&amp;quot;;font-size:11.0pt&quot;&gt;&lt;span style=&quot;font-size: 11pt; background-color: initial;&quot;&gt;ApiCallHistoryFilterAttribute.cs&lt;/span&gt;&lt;br&gt;&lt;/p&gt;&lt;p style=&quot;margin: 0in; font-family: &amp;quot;Yu Gothic&amp;quot;; font-size: 11pt;&quot;&gt;&lt;span lang=&quot;ja&quot;&gt;→&lt;/span&gt;&lt;span lang=&quot;en-US&quot;&gt;Utils&lt;/span&gt;&lt;span lang=&quot;ja&quot;&gt;フォルダ&lt;/span&gt;&lt;/p&gt;&lt;div&gt;&lt;span lang=&quot;ja&quot;&gt;&lt;br&gt;&lt;/span&gt;&lt;/div&gt;&lt;p lang=&quot;en-US&quot; style=&quot;margin:0in;font-family:&amp;quot;Yu Gothic&amp;quot;;font-size:11.0pt&quot;&gt;ExpenseAuthenticationAttribute.cs&lt;/p&gt;&lt;p lang=&quot;en-US&quot; style=&quot;margin:0in;font-family:&amp;quot;Yu Gothic&amp;quot;;font-size:11.0pt&quot;&gt;&lt;span style=&quot;font-size: 11pt; background-color: initial;&quot; lang=&quot;en-US&quot;&gt;→common&lt;/span&gt;&lt;span style=&quot;font-size: 11pt; background-color: initial;&quot; lang=&quot;ja&quot;&gt;フォルダの中　&lt;/span&gt;&lt;span style=&quot;font-size: 11pt; background-color: initial;&quot; lang=&quot;ja&quot;&gt;なんか認証している&lt;/span&gt;&lt;span style=&quot;font-size: 11pt; background-color: initial;&quot; lang=&quot;en-US&quot;&gt;(HTTP&lt;/span&gt;&lt;span style=&quot;font-size: 11pt; background-color: initial;&quot; lang=&quot;ja&quot;&gt;とか&lt;/span&gt;&lt;span style=&quot;font-size: 11pt; background-color: initial;&quot; lang=&quot;en-US&quot;&gt;)&lt;/span&gt;&lt;/p&gt;&lt;/blockquote&gt;&lt;/blockquote&gt;" style="rounded=0;whiteSpace=wrap;html=1;align=left;" parent="1" vertex="1">
                    <mxGeometry x="591.94" y="1056" width="503.25" height="110" as="geometry"/>
                </mxCell>
                <mxCell id="G4DIVwbq2QVi-JwqjrJQ-25" value="" style="endArrow=classic;html=1;rounded=0;" parent="1" edge="1">
                    <mxGeometry width="50" height="50" relative="1" as="geometry">
                        <mxPoint x="843.0699999999999" y="1012" as="sourcePoint"/>
                        <mxPoint x="843.0400000000002" y="1055.999999999999" as="targetPoint"/>
                    </mxGeometry>
                </mxCell>
                <mxCell id="G4DIVwbq2QVi-JwqjrJQ-27" value="" style="endArrow=classic;html=1;rounded=0;" parent="1" edge="1">
                    <mxGeometry width="50" height="50" relative="1" as="geometry">
                        <mxPoint x="843.0700000000006" y="1165.999999999999" as="sourcePoint"/>
                        <mxPoint x="843.0400000000004" y="1209.999999999999" as="targetPoint"/>
                    </mxGeometry>
                </mxCell>
                <mxCell id="G4DIVwbq2QVi-JwqjrJQ-28" value="&lt;blockquote style=&quot;margin: 0 0 0 40px; border: none; padding: 0px;&quot;&gt;&lt;blockquote style=&quot;margin: 0 0 0 40px; border: none; padding: 0px;&quot;&gt;&lt;p style=&quot;margin:0in;font-family:&amp;quot;Yu Gothic&amp;quot;;font-size:11.0pt&quot;&gt;&lt;span lang=&quot;en-US&quot;&gt;[&lt;/span&gt;&lt;span lang=&quot;ja&quot;&gt;更新&lt;/span&gt;&lt;span lang=&quot;en-US&quot;&gt;]&lt;/span&gt;&lt;span lang=&quot;ja&quot;&gt;ボタンを押下&lt;/span&gt;&lt;/p&gt;&lt;p style=&quot;margin:0in;font-family:&amp;quot;Yu Gothic&amp;quot;;font-size:11.0pt&quot;&gt;上記同様、クライアント→API→DataProvider→Modelsという順番で中身は動いていく&lt;/p&gt;&lt;p style=&quot;margin:0in;font-family:&amp;quot;Yu Gothic&amp;quot;;font-size:11.0pt&quot;&gt;&lt;span lang=&quot;en-US&quot;&gt;API&lt;/span&gt;&lt;/p&gt;&lt;p lang=&quot;en-US&quot; style=&quot;margin:0in;margin-left:.375in;font-size:11.0pt&quot;&gt;&lt;span style=&quot;font-family:&amp;quot;Yu Gothic&amp;quot;&quot;&gt;ApplicationV5ApiController.cs(&lt;/span&gt;&lt;span style=&quot;font-family:游ゴシック&quot;&gt;/api/v5/application/updateformfields)&lt;/span&gt;&lt;/p&gt;&lt;p style=&quot;margin:0in;margin-left:.375in;font-size:11.0pt&quot;&gt;&lt;span lang=&quot;en-US&quot; style=&quot;font-family:游ゴシック&quot;&gt;[Route(&quot;updateformfields&quot;)](&lt;/span&gt;&lt;span lang=&quot;ja&quot; style=&quot;font-family:游ゴシック&quot;&gt;フォームの情報を取得、申請書連携、ワークフロー連携、ワークフロー&lt;/span&gt;&lt;span lang=&quot;en-US&quot; style=&quot;font-family:&amp;quot;Yu Gothic&amp;quot;&quot;&gt;API&lt;/span&gt;&lt;span lang=&quot;ja&quot;&gt;の呼び出し&lt;/span&gt;&lt;span lang=&quot;en-US&quot; style=&quot;font-family:&amp;quot;Yu Gothic&amp;quot;&quot;&gt;(WFHelper.cs(Common&lt;/span&gt;&lt;span lang=&quot;ja&quot; style=&quot;font-family:&amp;quot;Yu Gothic&amp;quot;&quot;&gt;フォルダ&lt;/span&gt;&lt;span lang=&quot;en-US&quot; style=&quot;font-family:&amp;quot;Yu Gothic&amp;quot;&quot;&gt;))&lt;/span&gt;&lt;span lang=&quot;ja&quot; style=&quot;font-family:游ゴシック&quot;&gt;、申請書情報の取得、カテゴリー覧を取得&lt;/span&gt;&lt;span lang=&quot;en-US&quot; style=&quot;font-family:游ゴシック&quot;&gt;)&lt;/span&gt;&lt;/p&gt;&lt;p lang=&quot;ja&quot; style=&quot;margin:0in;font-family:&amp;quot;Yu Gothic&amp;quot;;font-size:11.0pt&quot;&gt;&amp;nbsp;&lt;/p&gt;&lt;/blockquote&gt;&lt;/blockquote&gt;" style="rounded=0;whiteSpace=wrap;html=1;align=left;" parent="1" vertex="1">
                    <mxGeometry x="395.9999999999998" y="1210" width="895.13" height="143" as="geometry"/>
                </mxCell>
            </root>
        </mxGraphModel>
    </diagram>
</mxfile>